<?xml version="1.0" standalone="no"?><!DOCTYPE svg PUBLIC "-//W3C//DTD SVG 1.1//EN" "http://www.w3.org/Graphics/SVG/1.1/DTD/svg11.dtd"><svg t="1735198430227" class="icon" viewBox="0 0 1024 1024" version="1.1" xmlns="http://www.w3.org/2000/svg" p-id="1862" xmlns:xlink="http://www.w3.org/1999/xlink" width="200" height="200"><path d="M500.363636 826.181818a23.272727 23.272727 0 0 1 23.214546 21.527273L523.636364 849.454545v93.09091a23.272727 23.272727 0 0 1-46.487273 1.745454L477.090909 942.545455v-93.09091a23.272727 23.272727 0 0 1 23.272727-23.272727zM494.254545 215.272727a23.272727 23.272727 0 0 1 23.482182 21.248l0.081455 1.745455 5.818182 471.272727a23.272727 23.272727 0 0 1-46.464 2.304l-0.081455-1.745454-5.818182-471.272728a23.272727 23.272727 0 0 1 22.981818-23.552z" fill="#424242" p-id="1863"></path><path d="M610.909091 87.272727a23.272727 23.272727 0 0 1 23.272727 23.272728c0 70.981818-60.183273 128-133.818182 128s-133.818182-57.018182-133.818181-128a23.272727 23.272727 0 1 1 46.545454 0c0 44.695273 38.795636 81.454545 87.272727 81.454545s87.272727-36.759273 87.272728-81.454545a23.272727 23.272727 0 0 1 23.272727-23.272728zM683.473455 686.754909l-171.659637 22.877091-194.909091-22.923636A23.272727 23.272727 0 0 0 290.909091 709.818182v104.727273a23.272727 23.272727 0 0 0 20.549818 23.109818l197.818182 23.272727a23.272727 23.272727 0 0 0 5.794909-0.046545l174.545455-23.272728A23.272727 23.272727 0 0 0 709.818182 814.545455v-104.727273a23.272727 23.272727 0 0 0-26.344727-23.063273zM337.454545 735.988364l171.822546 20.212363 1.931636 0.151273a23.272727 23.272727 0 0 0 3.863273-0.197818L663.272727 736.395636v57.762909l-151.458909 20.200728L337.454545 793.844364v-57.856z" fill="#424242" p-id="1864"></path><path d="M291.188364 706.245818a23.272727 23.272727 0 0 1 26.565818-19.432727l20.375273 3.130182 13.079272 1.954909 24.901818 3.607273 17.582546 2.443636 16.663273 2.210909 20.747636 2.606545 14.475636 1.687273 9.122909 1.000727 12.904728 1.31491 8.075636 0.744727 11.322182 0.930909 10.391273 0.698182 6.4 0.349091 5.969454 0.244363 2.839273 0.093091a338.967273 338.967273 0 0 0 61.579636-4.037818 65.792 65.792 0 0 1 75.892364 60.893091l0.116364 3.083636 0.290909 18.664728a69.806545 69.806545 0 0 1-61.858909 70.4c-16.034909 1.850182-35.677091 2.676364-59.008 2.536727l-11.985455-0.151273a1119.813818 1119.813818 0 0 1-208.232727-23.901091 23.272727 23.272727 0 1 1 9.553454-45.544727A1073.28 1073.28 0 0 0 512.581818 814.545455l11.485091 0.22109c24.203636 0.314182 43.997091-0.430545 59.252364-2.187636a23.272727 23.272727 0 0 0 20.584727-21.666909l0.034909-1.780364-0.279273-18.653091a19.246545 19.246545 0 0 0-22.237091-18.711272 385.512727 385.512727 0 0 1-70.027636 4.573091l-6.295273-0.209455-6.737454-0.314182-7.156364-0.430545-7.586909-0.535273-8.029091-0.64-8.448-0.744727-13.486545-1.326546-9.530182-1.024-15.104-1.733818-16.081455-1.978182-11.264-1.442909-17.710545-2.373818-18.699636-2.618182-19.665455-2.862545-27.776-4.189091-7.214545-1.117091a23.272727 23.272727 0 0 1-19.432728-26.565818z" fill="#E91919" p-id="1865"></path><path d="M36.212364 632.738909l-0.349091 1.687273c-8.843636 45.346909-13.265455 82.920727-12.590546 122.344727 0.058182 3.095273 0.186182 6.376727 0.384 9.821091l0.512 7.109818c0.093091 1.221818 0.209455 2.466909 0.325818 3.723637l0.80291 7.796363 0.98909 8.250182 0.581819 4.293818 1.291636 8.936727 1.501091 9.390546 1.687273 9.844364 1.885091 10.321454 2.094545 10.775273 2.280727 11.240727 2.478546 11.706182 2.676363 12.183273 4.398546 19.141818a23.272727 23.272727 0 0 0 2.920727 7.028363l26.263273 42.01891a46.522182 46.522182 0 0 0 85.410909-17.31491l1.466182-9.367272c6.597818-43.403636 10.321455-82.594909 11.147636-117.643637l0.093091-5.492363 0.162909-0.174546c23.970909-27.275636 45.44-69.469091 64.709818-126.813091l3.700364-11.287272 3.653818-11.659637 1.803636-5.981091 3.572364-12.229818 1.757091-6.260363 3.490909-12.811637c3.467636-12.997818 6.853818-26.565818 10.158546-40.704l3.281454-14.324363 2.850909-12.96291 6.318546 18.955637-0.279273-1.570909C287.162182 604.008727 290.909091 645.282909 290.909091 686.545455c0 20.782545-3.072 41.6-9.227636 62.510545l-1.943273 6.283636a116.363636 116.363636 0 0 0 35.374545 124.509091C382.173091 936.727273 443.729455 965.818182 500.363636 965.818182c55.191273 0 115.048727-27.624727 180.072728-81.629091l5.061818-4.258909a116.410182 116.410182 0 0 0 36.561454-121.122909l-1.058909-3.456C713.530182 732.311273 709.818182 709.410909 709.818182 686.545455l0.093091-11.252364c0.558545-33.768727 3.630545-67.537455 9.216-101.317818l1.477818-8.599273 12.893091-29.009455 2.210909 12.660364 2.629818 14.359273 1.338182 7.04 2.734545 13.800727 2.792728 13.428364c20.829091 97.140364 47.511273 164.503273 80.989091 202.786909l2.024727 2.245818-1.396364-6.004364a822.784 822.784 0 0 1 20.270546 129.454546 46.545455 46.545455 0 0 0 83.665454 24.378182L961.163636 909.963636a23.272727 23.272727 0 0 0 4.142546-9.088l3.979636-18.909091 2.455273-12.008727 3.386182-17.093818 2.059636-10.786909 2.781091-15.290182 1.652364-9.588364 1.489454-9.111272 1.338182-8.645818 1.163636-8.145455 1.012364-7.703273 0.849455-7.214545 0.698181-6.737455 0.523637-6.283636A720.616727 720.616727 0 0 0 984.471273 628.363636l-1.396364-10.589091-5.713454-38.167272-0.069819-0.500364c-2.792727-23.703273-10.821818-38.283636-27.380363-56.133818l-9.122909-9.541818c-12.578909-13.288727-18.420364-23.179636-21.969455-40.890182l-4.573091-22.423273-6.737454-31.895273-7.447273-34.350545-7.714909-34.792727-7.540364-33.245091-5.608727-24.133818-3.805091-15.988364-8.401455-34.269091c-4.456727-17.245091-9.227636-27.950545-18.757818-38.981818l-1.245091-1.419636-2.618181-2.792728-2.827637-2.781091-3.072-2.792727-1.629091-1.396364-3.490909-2.850909a165.445818 165.445818 0 0 0-3.816727-2.909091l-4.165818-3.025454-4.549818-3.130182-4.968728-3.269818-8.32-5.248-6.167272-3.746909-6.69091-3.991273-11.112727-6.458182-10.914909-6.213818c-43.438545-24.413091-81.92-42.123636-115.607273-53.143273l-4.270545-1.361454-3.514182-3.688727C598.109091 39.086545 548.712727 11.636364 500.363636 11.636364l-3.677091 0.058181c-48.872727 1.396364-95.290182 30.871273-139.415272 86.202182l-16.034909 8.145455-13.160728 6.784-12.672 6.621091-12.16 6.446545-11.659636 6.283637-11.159273 6.10909-5.387636 3.002182-10.414546 5.864728c-1.698909 0.965818-3.374545 1.92-5.015272 2.874181l-9.658182 5.620364-9.169455 5.457455-4.398545 2.664727-25.914182 16.104727-9.960727 6.446546-5.445818 3.80509-4.596364 3.421091a129.303273 129.303273 0 0 0-30.72 32.477091c-5.597091 8.32-11.112727 18.129455-17.652364 31.208728-4.538182 9.088-8.32 19.421091-11.589818 31.650909l-1.722182 6.853818-1.640727 7.261091-0.791273 3.781818-1.512727 7.901091c-0.256 1.349818-0.500364 2.722909-0.744727 4.119273l-1.408 8.587636-1.373091 9.088-1.314909 9.611636-0.64 5.003637-1.28 10.414545-1.233455 10.996364-6.167272 59.694545-1.512728 13.230546-1.082182 8.541091-1.082181 7.610181-1.105455 6.923637-0.779636 4.352c-2.676364 14.498909-5.376 18.501818-13.917091 24.785454l-5.003637 3.653818c-21.317818 15.744-32.733091 34.781091-38.784 73.053091l-1.024 6.644364-1.908363 10.333091-3.816727 19.444364-4.445091 21.969454zM500.363636 58.181818c35.456 0 76.532364 23.970909 122.507637 73.937455a23.272727 23.272727 0 0 0 10.577454 6.574545c32.384 9.506909 71.284364 26.949818 116.503273 52.363637l13.416727 7.668363 12.194909 7.156364 7.831273 4.759273 4.631273 2.90909 4.189091 2.699637 5.538909 3.723636 3.211636 2.304 2.850909 2.152727 1.314909 1.035637 2.373819 1.978182 1.082181 0.954181 1.954909 1.838546 1.69891 1.768727 0.768 0.861091c4.037818 4.677818 6.097455 9.285818 8.92509 20.224l7.493819 30.557091 5.911272 24.890182 6.702546 29.067636 9.506909 42.391273 8.610909 39.424 7.656727 36.061091 3.351273 16.244363 2.013091 9.925819c5.178182 25.902545 14.615273 42.763636 30.999273 60.741818l9.448727 9.937454c11.264 11.752727 15.383273 18.280727 17.117091 29.824l1.314909 9.309091 4.933818 32.861091 0.221091 1.582546c5.550545 40.843636 7.796364 81.896727 5.352727 129.256727l-0.139636 2.455273-0.407273 5.469091-0.570182 5.957818-0.721454 6.458182-0.884364 6.958545-1.047273 7.447273-1.861818 12.101818-2.199272 13.207273-2.56 14.312727-1.908364 10.135273-3.153455 16.139636-2.304 11.357091-3.968 18.978909-27.345454 36.456727a869.259636 869.259636 0 0 0-21.410909-136.738909 23.272727 23.272727 0 0 0-6.167273-11.054545c-13.917091-13.893818-26.938182-35.258182-38.958545-63.976728l-3.258182-8.017454a490.903273 490.903273 0 0 1-7.912728-21.632l-3.060363-9.285818-3.025455-9.658182a743.121455 743.121455 0 0 1-5.888-20.398546l-2.862545-10.740363a927.255273 927.255273 0 0 1-2.816-11.101091l-2.757818-11.473455-1.349819-5.864727-2.676363-12.008727-2.618182-12.369455c-0.430545-2.094545-0.861091-4.189091-1.28-6.318545l-2.536727-12.916364-2.466909-13.265454-2.420364-13.614546-2.350545-13.986909-2.304-14.347636-2.234182-14.708364-2.187637-15.057454-1.058909-7.656728-2.094545-15.592727c-3.037091-23.319273-34.792727-27.927273-44.334546-6.446545l-46.545454 104.727272a23.272727 23.272727 0 0 0-1.629091 5.282909A737.454545 737.454545 0 0 0 663.272727 686.545455c0 27.810909 4.491636 55.540364 13.44 83.141818a69.818182 69.818182 0 0 1-21.236363 74.682182l-4.887273 4.096C593.291636 896.058182 543.010909 919.272727 500.363636 919.272727c-43.834182 0-95.732364-24.529455-155.112727-74.914909a69.818182 69.818182 0 0 1-21.236364-74.682182C332.962909 742.097455 337.454545 714.344727 337.454545 686.545455c0-44.066909-4.002909-88.133818-12.008727-132.165819a23.272727 23.272727 0 0 0-0.814545-3.188363l-34.909091-104.727273c-7.656727-22.946909-40.866909-20.456727-45.009455 3.374545l-1.384727 7.854546-2.792727 15.441454-2.827637 15.092364-2.862545 14.731636-2.909091 14.37091-2.944 14.021818-1.489455 6.865454-3.002181 13.486546-3.037091 13.114182-3.083637 12.76509-1.547636 6.237091-3.141818 12.218182c-0.512 2.013091-1.047273 4.002909-1.570909 5.981091l-3.176728 11.671273-3.223272 11.310545-3.258182 10.961455-3.281455 10.589091-3.316363 10.228363-1.675637 4.980364-3.374545 9.681455c-2.816 7.912727-5.666909 15.453091-8.552727 22.62109l-3.490909 8.401455-3.49091 8.052364c-12.928 28.823273-26.449455 50.292364-40.459636 64.302545A23.272727 23.272727 0 0 0 128 791.272727l-0.046545 6.853818c-0.418909 34.594909-4.002909 74.158545-10.763637 118.621091l-1.396363 8.925091-24.203637-38.725818-3.293091-14.510545-3.758545-17.210182-2.269091-10.88-2.082909-10.426182-2.757818-14.731636-0.826182-4.677819-1.512727-8.994909-1.31491-8.517818-1.140363-8.052363a475.543273 475.543273 0 0 1-0.488727-3.84l-0.849455-7.319273a315.461818 315.461818 0 0 1-0.919273-10.077091l-0.372363-6.120727c-0.093091-1.954909-0.162909-3.84-0.186182-5.632-0.581818-33.361455 2.967273-65.873455 10.216727-104.762182l2.734546-14.056727 5.934545-29.021091 1.780364-9.041455 0.942545-5.12 0.779636-4.596364 0.651637-4.247272c4.142545-28.974545 9.134545-37.620364 20.875636-46.301091l4.957091-3.607273c17.757091-13.079273 27.240727-27.159273 32.197818-53.876364l1.28-7.296 1.186909-7.749818 0.779637-5.538909 1.163636-9.076363 1.186909-10.205091 2.152727-20.282182 3.863273-38.039273 1.163637-10.519273 1.745454-14.731636 1.210182-9.134545 1.221818-8.61091 1.268364-8.087272 1.291636-7.598546c0.442182-2.443636 0.896-4.817455 1.349818-7.098182l1.396364-6.632727c3.060364-13.882182 6.516364-24.552727 10.577454-32.686545 1.28-2.536727 2.490182-4.922182 3.653819-7.156364l3.374545-6.295273c2.722909-4.910545 5.213091-9.029818 7.610182-12.590545a81.687273 81.687273 0 0 1 17.501091-19.223273l3.537454-2.746182 3.781819-2.781091 4.224-2.90909 6.865454-4.445091 14.615273-9.134546 7.726545-4.782545c2.676364-1.675636 5.469091-3.362909 8.32-5.085091l8.820364-5.259637 9.332364-5.422545 4.864-2.781091 10.088727-5.678545 10.589091-5.853091 11.112727-6.027637 11.601455-6.202181 12.101818-6.365091 12.625454-6.551273 13.114182-6.702546 13.614546-6.888727a23.272727 23.272727 0 0 0 7.936-6.516363C428.939636 81.477818 465.570909 58.181818 500.363636 58.181818z" fill="#424242" p-id="1866"></path></svg>