<?xml version="1.0" standalone="no"?><!DOCTYPE svg PUBLIC "-//W3C//DTD SVG 1.1//EN" "http://www.w3.org/Graphics/SVG/1.1/DTD/svg11.dtd"><svg t="1735198412102" class="icon" viewBox="0 0 1024 1024" version="1.1" xmlns="http://www.w3.org/2000/svg" p-id="1553" xmlns:xlink="http://www.w3.org/1999/xlink" width="200" height="200"><path d="M492.869818 626.734545a23.272727 23.272727 0 0 1 32.384-5.864727l13.730909 9.437091 12.881455 8.680727 8.098909 5.364364 7.714909 5.026909 10.833455 6.888727 6.74909 4.165819 6.330182 3.84 5.946182 3.479272 5.550546 3.141818 5.154909 2.792728 4.759272 2.443636 2.222546 1.105455c12.706909 6.144 29.684364 12.404364 50.862545 18.722909l10.065455 2.909091 10.670545 2.920727 11.252364 2.920727a23.272727 23.272727 0 1 1-11.426909 45.125818c-39.354182-9.960727-69.818182-20.130909-91.694546-30.708363l-2.536727-1.245091-5.352727-2.746182-5.701818-3.083636-6.085819-3.421091-3.176727-1.838546-6.644363-3.933091-7.016728-4.270545-7.389091-4.608-7.761454-4.945455-8.145455-5.294545-8.529454-5.643636-8.913455-5.981091-14.08-9.611637a2197.876364 2197.876364 0 0 1-4.887273-3.374545 23.272727 23.272727 0 0 1-5.864727-32.384z" fill="#E91919" p-id="1554"></path><path d="M959.313455 82.385455a1959.365818 1959.365818 0 0 1-356.503273 69.003636c-120.133818 11.810909-234.903273 11.810909-344.32 0.023273A23.272727 23.272727 0 0 0 232.727273 174.545455l-0.081455 23.575272-0.151273 15.266909-0.232727 14.917819-0.302545 14.545454-0.581818 21.166546-0.500364 13.649454-0.558546 13.300364-0.64 12.928-0.698181 12.567272-0.791273 12.218182-0.861091 11.845818-0.930909 11.485091-1.000727 11.112728-1.070546 10.763636-1.140363 10.391273-0.605091 5.050182-1.256728 9.844363a775.330909 775.330909 0 0 1-0.651636 4.794182l-1.361455 9.285818-0.698181 4.514909-1.477819 8.738909-1.536 8.378182-0.791272 4.061091-1.652364 7.819636c-0.279273 1.28-0.558545 2.536727-0.849454 3.770182l-1.745455 7.272728a272.756364 272.756364 0 0 1-5.666909 19.607272l-2.024727 5.783273c-1.035636 2.804364-2.094545 5.469091-3.165091 7.994182-7.761455 18.106182-20.491636 38.923636-38.167273 62.370909l-5.76 7.505454c-2.955636 3.793455-6.027636 7.645091-9.239273 11.566546l-6.562909 7.936-6.900363 8.098909-7.237819 8.273455c-1.221818 1.396364-2.478545 2.792727-3.723636 4.200727l-7.726545 8.541091a1101.149091 1101.149091 0 0 1-3.991273 4.328727l-8.215273 8.785455-8.541091 8.96-4.386909 4.549818-9.041454 9.216-9.355637 9.390545-9.693091 9.541818-10.018909 9.728-5.131636 4.922182-10.507637 9.972364-10.833454 10.135273-5.550546 5.131636C3.560727 718.72 13.730909 744.727273 34.909091 744.727273c105.402182 0 199.098182 18.734545 281.274182 56.087272l103.028363 46.999273 77.905455 35.723637 98.210909 45.230545a23.272727 23.272727 0 0 0 7.249455 2.001455l9.460363 1.000727 9.216 0.884363 4.468364 0.384 8.692363 0.67491 8.343273 0.535272 8.005818 0.384c50.885818 2.024727 80.162909-5.538909 91.508364-28.229818l1.058909-2.210909c12.264727-26.891636 10.577455-68.189091-3.886545-125.649455l-2.606546-10.007272a766.417455 766.417455 0 0 0-4.363636-15.616l-3.223273-10.821818a963.106909 963.106909 0 0 0-1.710545-5.515637l-3.106909-9.786182 66.688-76.218181 4.026181-0.465455c33.163636-4.270545 56.529455-12.986182 70.423273-28.113455l10.984727-12.753454a707.723636 707.723636 0 0 0 14.929455-18.001455 578.199273 578.199273 0 0 0 38.842182-54.481454c26.868364-42.810182 47.045818-88.075636 58.158545-135.854546 17.966545-77.253818 17.966545-176.977455 0.372364-299.485091A23.272727 23.272727 0 0 0 959.301818 82.385455z m-12.986182 52.049454l1.000727 8.087273c12.136727 101.399273 10.647273 184.087273-4.177455 247.842909-9.844364 42.321455-27.962182 82.944-52.247272 121.658182a532.107636 532.107636 0 0 1-35.746909 50.117818c-3.083636 3.84-6.074182 7.493818-9.192728 11.194182l-14.382545 16.861091c-5.201455 6.237091-23.389091 12.299636-53.981091 14.987636a23.272727 23.272727 0 0 0-15.476364 7.854545l-81.454545 93.09091a23.272727 23.272727 0 0 0-4.549818 22.725818l1.733818 5.224727c1.140364 3.456 2.245818 6.853818 3.304727 10.205091l3.083637 9.890909 2.874181 9.576727 2.641455 9.262546c0.430545 1.512727 0.849455 3.025455 1.245091 4.503272l2.327273 8.785455 1.082181 4.258909 2.013091 8.296727 0.919273 4.026182 1.687273 7.796364 1.477818 7.470545 1.28 7.133091 0.546909 3.444364 0.965818 6.632727c0.430545 3.234909 0.779636 6.341818 1.047273 9.309091l0.465454 5.794909 0.232728 5.445818c0.325818 11.415273-0.756364 20.410182-3.188364 26.88l-0.407273 0.965818-0.232727 0.069819-0.174545 0.069818c-3.223273 1.373091-8.517818 2.594909-15.709091 3.374545l-3.025455 0.290909c-13.44 1.163636-31.464727 0.837818-53.853091-1.024l-10.647272-0.965818-6.458182-0.674909-110.696728-50.967273-107.136-49.035636-58.065454-26.449455-8.075636-3.607272c-70.283636-30.72-147.851636-48.919273-232.622546-54.667637l-3.316364-0.221091 3.258182-3.16509c3.607273-3.525818 7.133091-7.028364 10.624-10.496l10.251637-10.309819 9.890909-10.146909a1167.534545 1167.534545 0 0 0 35.909818-38.784l8.052364-9.262545c35.444364-41.274182 59.776-77.265455 73.05309-108.253091l1.233455-2.955636c3.258182-7.982545 6.295273-16.907636 9.099636-26.763637l2.059637-7.586909c1.349818-5.166545 2.641455-10.577455 3.863272-16.221091l1.803637-8.634182c0.884364-4.421818 1.745455-8.96 2.56-13.637818l1.582545-9.541818 0.768-4.887273 1.466182-10.077091 0.698182-5.166545 1.349818-10.612364 0.64-5.434182 1.210182-11.147636 1.140364-11.52 1.047272-11.869091 0.965818-12.218182 0.896-12.590545 0.80291-12.951273 0.721454-13.312 0.64-13.672727 0.558546-14.045091 0.47709-14.394182 0.407273-14.778182 0.314182-15.127272 0.232727-15.499637 0.151273-14.673454 1.477818 0.151272c104.424727 9.390545 213.341091 8.494545 326.725818-2.664727 112.418909-11.054545 223.616-31.650909 333.568-61.765818l5.387637-1.501091z" fill="#424242" p-id="1555"></path></svg>