<?xml version="1.0" standalone="no"?><!DOCTYPE svg PUBLIC "-//W3C//DTD SVG 1.1//EN" "http://www.w3.org/Graphics/SVG/1.1/DTD/svg11.dtd"><svg t="1735198419795" class="icon" viewBox="0 0 1024 1024" version="1.1" xmlns="http://www.w3.org/2000/svg" p-id="1707" xmlns:xlink="http://www.w3.org/1999/xlink" width="200" height="200"><path d="M780.695273 411.962182a23.272727 23.272727 0 0 1 27.473454-15.720727l1.687273 0.453818 186.181818 58.181818a23.272727 23.272727 0 0 1 16.314182 23.086545l-0.151273 1.850182-23.272727 197.818182a23.272727 23.272727 0 0 1-21.259636 20.48L965.818182 698.181818H791.272727a23.272727 23.272727 0 0 1-1.745454-46.487273L791.272727 651.636364h153.856l18.594909-158.091637-167.761454-52.421818a23.272727 23.272727 0 0 1-15.720727-27.473454l0.453818-1.687273z" fill="#E91919" p-id="1708"></path><path d="M257.198545 690.827636a23.272727 23.272727 0 1 1 44.148364 14.708364c-9.925818 29.789091-33.722182 53.573818-69.853091 71.645091-39.447273 19.723636-89.588364 10.612364-149.946182-23.889455a23.272727 23.272727 0 0 1 23.086546-40.401454c48.244364 27.566545 83.432727 33.954909 106.053818 22.656 24.692364-12.346182 39.458909-26.530909 45.637818-42.344727l0.872727-2.373819z" fill="#424242" p-id="1709"></path><path d="M159.930182 221.277091a23.272727 23.272727 0 0 0-6.935273 2.024727C54.993455 269.428364 11.229091 391.330909 13.090909 544.279273c0.709818 58.356364 8.610909 116.852364 21.038546 161.268363 6.109091 21.794909 13.090909 39.435636 20.759272 51.665455l1.268364 1.966545c5.538909 8.343273 12.008727 14.882909 19.269818 18.536728l1.349818 0.628363 0.930909 1.117091 2.269091 1.768727 1.861818 1.349819c2.304 1.559273 4.096 2.187636 7.482182 2.536727l2.874182 0.209454 5.876364 0.244364 8.541091-4.840727 2.315636-1.384727 1.792-1.152 0.733091-0.512 1.163636-0.919273 0.861091-0.849455a6.4 6.4 0 0 0 0.337455-0.407272l0.512-0.849455 0.384-0.930909 0.512-1.652364a24.087273 24.087273 0 0 0 2.176-7.610182l2.56-18.827636c2.827636-19.874909 6.481455-37.818182 11.787636-54.807273C144.488727 650.007273 162.641455 628.363636 186.181818 628.363636c21.061818 0 37.608727 12.509091 62.72 45.835637l5.632 7.610182 17.605818 24.32C320.663273 772.293818 362.170182 802.909091 430.545455 802.909091l11.089454-0.058182 5.550546-0.069818 11.089454-0.232727 11.077818-0.349091 11.054546-0.465455 5.527272-0.279273 11.008-0.64 10.973091-0.744727 10.914909-0.849454 5.434182-0.465455 10.810182-1.024c1.792-0.186182 3.595636-0.360727 5.376-0.558545l10.705455-1.175273 10.600727-1.28 10.507636-1.396364 5.213091-0.744727 10.333091-1.547636 5.12-0.814546 10.158546-1.698909 5.015272-0.896 9.937455-1.861818 9.786182-1.943273 9.623272-2.059636 4.747637-1.047273 9.367272-2.210909 9.192728-2.292364c1.512727-0.395636 3.013818-0.779636 4.503272-1.186909l8.890182-2.432 4.363637-1.256727 8.564363-2.571636c1.419636-0.430545 2.816-0.872727 4.212364-1.326546l8.226909-2.711273 4.026182-1.384727 7.877818-2.850909c46.498909-17.338182 79.476364-39.447273 89.821091-65.291636 16.267636-40.680727 22.213818-138.042182 17.617454-217.250909l-0.768-11.729455c-2.967273-40.517818-8.843636-75.008-17.640727-92.625454-9.053091-18.094545-33.826909-39.493818-69.061818-60.439273l-7.703273-4.48a504.180364 504.180364 0 0 0-12.136727-6.679273l-8.459636-4.421818a604.590545 604.590545 0 0 0-22.341819-10.821818l-9.367272-4.212364a690.781091 690.781091 0 0 0-19.479273-8.238545l-10.065455-3.979637a745.402182 745.402182 0 0 0-26.018909-9.541818L605.090909 257.163636c-127.953455-42.065455-279.831273-57.216-445.160727-35.886545zM590.545455 301.381818c3.211636 1.047273 6.4 2.129455 9.553454 3.223273l9.390546 3.316364 4.631272 1.687272 9.134546 3.444364 4.491636 1.745454 8.832 3.549091 8.634182 3.607273 8.401454 3.665455 8.180364 3.688727 4.002909 1.861818 7.808 3.723636 3.816727 1.873455 7.412364 3.746909 7.144727 3.746909 6.865455 3.723637 6.551273 3.723636 6.248727 3.665454 5.922909 3.630546 5.585455 3.572364 5.236363 3.525818c3.386182 2.315636 6.528 4.584727 9.425455 6.795636l4.130909 3.258182c8.552727 6.981818 14.347636 13.207273 16.872727 18.245818 6.272 12.544 10.589091 39.703273 12.928 72.727273l0.674909 10.624 0.535273 10.938182 0.418909 11.217454 0.151273 5.701818 0.209454 11.496728c0.069818 5.783273 0.093091 11.613091 0.069818 17.454545l-0.116363 11.671273-0.116364 5.818182-0.314182 11.601454-0.442181 11.473455-0.279273 5.655272-0.651637 11.17091c-0.477091 7.342545-1.047273 14.510545-1.698909 21.410909l-1.047272 10.123636c-2.606545 23.098182-6.306909 42.414545-11.112728 54.411636-3.572364 8.925091-14.522182 17.803636-31.057454 26.181819l-5.12 2.513454c-1.768727 0.826182-3.584 1.652364-5.457455 2.478546l-5.76 2.443636c-1.978182 0.802909-3.991273 1.605818-6.062545 2.397091l-6.365091 2.362182-3.281455 1.163636-6.772363 2.304-7.04 2.257455-3.618909 1.105454-7.412364 2.187636c-2.513455 0.721455-5.073455 1.431273-7.656727 2.129455l-7.877818 2.082909-4.026182 1.012364-8.203637 1.989818-8.401454 1.931636-8.587637 1.861818-8.762181 1.803637-13.463273 2.571636-9.157818 1.629091-4.642909 0.779636-9.367273 1.512728-9.495273 1.431272-9.611636 1.349819-9.704727 1.268363-9.809455 1.175273-9.890909 1.093818-9.937455 1.000727-5.003636 0.465455-10.042182 0.861091-5.026909 0.384-10.100364 0.709818-10.123636 0.605091-5.073454 0.267636-10.135273 0.453819-10.146909 0.337454-5.073455 0.128-10.123636 0.174546L430.545455 756.363636c-47.592727 0-77.381818-20.340364-115.269819-70.248727l-8.180363-11.054545-18.234182-25.157819C254.196364 603.089455 227.223273 581.818182 186.181818 581.818182c-49.640727 0-80.733091 37.061818-98.862545 95.127273l-2.222546 7.447272c-1.419636 4.968727-2.722909 9.972364-3.921454 15.057455l-0.139637 0.628363-2.082909-7.074909c-11.287273-40.378182-18.653091-94.859636-19.316363-149.294545l-0.058182-6.004364c-0.465455-129.698909 35.130182-230.365091 106.496-268.881454l3.537454-1.861818-3.723636 0.488727c158.370909-20.433455 303.243636-5.981091 424.657455 33.931636z" fill="#424242" p-id="1710"></path></svg>